Coordinates
version=1
nRows=18
nColumns=38
inDegrees=yes

Units are S.I. units (second, meters, Newtons, ...)
Angles are in degrees.

endheader
time	pelvis_tilt	pelvis_list	pelvis_rotation	pelvis_tx	pelvis_ty	pelvis_tz	hip_flexion_r	hip_adduction_r	hip_rotation_r	knee_angle_r	ankle_angle_r	subtalar_angle_r	mtp_angle_r	hip_flexion_l	hip_adduction_l	hip_rotation_l	knee_angle_l	ankle_angle_l	subtalar_angle_l	mtp_angle_l	lumbar_extension	lumbar_bending	lumbar_rotation	arm_flex_r	arm_add_r	arm_rot_r	elbow_flex_r	pro_sup_r	wrist_flex_r	wrist_dev_r	arm_flex_l	arm_add_l	arm_rot_l	elbow_flex_l	pro_sup_l	wrist_flex_l	wrist_dev_l
      2.30000000	      0.86899523	     -0.12285114	      1.42609559	      1.00965682	      1.09234454	     -0.25595555	      9.04443890	      4.11389317	     -4.16085715	    -15.48757041	      1.33305545	    -12.16954506	      0.00000000	     14.32145506	     -3.49260723	     -5.82896173	    -63.02556367	     -2.35694800	     -7.97037341	      0.00000000	    -15.25229783	      2.21484459	     -0.93257764	      3.94465870	    -14.19471463	     50.62537891	     32.88322821	     44.07894484	      0.00000000	      0.00000000	     -3.37508584	     -9.10718512	     30.81054952	     32.77497987	     44.07894484	      0.00000000	      0.00000000
      2.31000000	      0.86142383	      0.06547797	      1.23064049	      1.02167707	      1.09372627	     -0.25489364	      8.07267983	      4.02193588	     -3.89699175	    -14.94778824	      1.61934645	    -12.04437657	      0.00000000	     15.52747128	     -3.19452548	     -5.87687726	    -62.38153245	     -1.06951440	     -8.10754989	      0.00000000	    -15.30484175	      1.88537383	     -0.78868555	      4.45947731	    -14.33136586	     50.35813401	     33.29490332	     44.08358664	      0.00000000	      0.00000000	     -3.80471889	     -8.95280525	     30.98330863	     32.59569383	     44.08358664	      0.00000000	      0.00000000
      2.32000000	      0.89842761	      0.20794877	      1.04158244	      1.03351961	      1.09490369	     -0.25384885	      7.05620572	      3.98476799	     -3.66199219	    -14.39864789	      1.94192525	    -12.01772651	      0.00000000	     16.57011719	     -2.89666126	     -5.90345716	    -61.40770081	      0.00894691	     -8.45925200	      0.00000000	    -15.44749040	      1.60950231	     -0.72780152	      5.01205194	    -14.49817242	     49.92425952	     34.03965656	     44.09137908	      0.00000000	      0.00000000	     -4.19835247	     -8.84707956	     31.22356891	     32.36732306	     44.09137908	      0.00000000	      0.00000000
      2.33000000	      0.94363564	      0.30220669	      0.81424248	      1.04541917	      1.09586620	     -0.25269997	      6.02652642	      4.00039673	     -3.39482443	    -13.84185757	      2.29592413	    -11.96969657	      0.00000000	     17.52419217	     -2.75566091	     -6.13579069	    -60.15444012	      0.97957757	     -8.81824307	      0.00000000	    -15.55043176	      1.34294155	     -0.59961265	      5.42778008	    -14.73071079	     49.34504174	     34.97826255	     44.10113930	      0.00000000	      0.00000000	     -4.48266670	     -8.73405196	     31.50325014	     32.16962866	     44.10113930	      0.00000000	      0.00000000
      2.34000000	      0.84948921	      0.33807317	      0.63105481	      1.05712301	      1.09644473	     -0.25164466	      5.19870623	      4.04480188	     -3.27405205	    -13.34532522	      2.53974351	    -11.84747657	      0.00000000	     18.58548150	     -2.58983246	     -6.12702020	    -58.67948670	      1.67768027	     -9.16128351	      0.00000000	    -15.52567229	      1.17532778	     -0.41174581	      5.88608330	    -14.87014249	     49.05054938	     35.38495118	     44.10473826	      0.00000000	      0.00000000	     -4.68863500	     -8.61596580	     31.62647620	     32.10157874	     44.10473826	      0.00000000	      0.00000000
      2.35000000	      0.94409941	      0.38587864	      0.43310772	      1.06890186	      1.09700538	     -0.25072663	      4.13620296	      4.08038390	     -3.03996325	    -12.81586796	      2.89405444	    -11.83913862	      0.00000000	     19.23619389	     -2.32423421	     -6.07862060	    -56.80342060	      2.40418673	     -9.75725159	      0.00000000	    -15.75386949	      1.05730425	      0.09498036	      2.34923022	    -15.19976595	     34.76683153	     44.73143374	     44.31185391	      0.00000000	      0.00000000	     -4.02787220	     -8.69229921	     35.92372956	     30.32690945	     44.31185391	      0.00000000	      0.00000000
      2.36000000	      0.85279012	      0.36654752	      0.22548240	      1.08056451	      1.09714727	     -0.24969360	      3.33475085	      4.17191517	     -2.94930542	    -12.34769675	      3.32224746	    -11.65990311	      0.00000000	     20.13873024	     -2.21103935	     -6.03369702	    -54.86437248	      2.87272366	     -9.87742182	      0.00000000	    -15.71577834	      0.93508676	      0.29295644	      2.85940322	    -15.27387429	     34.67823120	     44.93587077	     44.31433256	      0.00000000	      0.00000000	     -4.26631838	     -8.57620316	     35.98775750	     30.29519020	     44.31433256	      0.00000000	      0.00000000
      2.37000000	      0.96520775	      0.47401008	      0.02561987	      1.09231580	      1.09736827	     -0.24875254	      2.23246377	      4.13399709	     -2.69781265	    -11.83034294	      3.54016959	    -11.65312065	      0.00000000	     20.69966694	     -1.93113432	     -5.95204362	    -52.59071341	      2.94079829	    -10.13638916	      0.00000000	    -15.91641258	      0.67505569	      0.38388819	      3.34032825	    -15.37870699	     34.56046710	     45.63216178	     44.32294660	      0.00000000	      0.00000000	     -4.53716482	     -8.51225991	     36.10556756	     30.23733335	     44.32294660	      0.00000000	      0.00000000
      2.38000000	      0.81519754	      0.38852729	     -0.20327129	      1.10393373	      1.09688036	     -0.24776605	      1.46570885	      4.27945701	     -2.52184061	    -11.34646194	      3.88324727	    -11.51684814	      0.00000000	     21.52182768	     -1.93295922	     -6.02880917	    -50.21084565	      3.32018725	    -10.02262271	      0.00000000	    -15.81735329	      0.62834958	      0.59684661	      3.76370557	    -15.47636661	     34.44929260	     45.94603017	     44.32542145	      0.00000000	      0.00000000	     -4.74034933	     -8.39618397	     36.16226504	     30.22683341	     44.32542145	      0.00000000	      0.00000000
      2.39000000	      0.75319970	      0.36504100	     -0.44899264	      1.11563385	      1.09643778	     -0.24670485	      0.52893300	      4.35646375	     -2.35700204	    -10.71558890	      4.27961675	    -11.30361999	      0.00000000	     22.49905592	     -2.13606126	     -6.78750235	    -48.03211471	      2.19076436	    -10.28051798	      0.00000000	    -15.81696666	      0.47501528	      0.74395049	      4.22846405	    -15.55842462	     34.31418669	     46.44654584	     44.32858488	      0.00000000	      0.00000000	     -4.98286248	     -8.30195648	     36.22381183	     30.20660933	     44.32858488	      0.00000000	      0.00000000
      2.40000000	      0.78752457	      0.31164656	     -0.62233183	      1.12740446	      1.09566504	     -0.24597254	     -0.47095657	      4.44304227	     -2.21397470	    -10.20898827	      4.77933670	    -11.10725267	      0.00000000	     22.57511117	     -1.73323446	     -5.80088985	    -44.77629643	      2.94389693	     -9.94489181	      0.00000000	    -15.92651355	      0.42008975	      1.00866935	      3.59289702	    -16.24574426	     32.88168687	     50.24026146	     44.36835756	      0.00000000	      0.00000000	     -5.11109902	     -8.26354502	     36.50396699	     30.28558571	     44.36835756	      0.00000000	      0.00000000
      2.41000000	      0.62801514	      0.14750868	     -0.84313837	      1.13913368	      1.09436691	     -0.24507310	     -1.26187872	      4.65327070	     -2.02485697	     -9.71402101	      5.22366603	    -10.93553876	      0.00000000	     23.01636110	     -1.65616111	     -5.08736517	    -41.64979483	      3.16253029	     -9.26619578	      0.00000000	    -15.79517120	      0.44409053	      1.23252650	      3.99495080	    -16.27160837	     32.65843439	     50.43913137	     44.37090421	      0.00000000	      0.00000000	     -5.27637089	     -8.14575750	     36.54529724	     30.28218051	     44.37090421	      0.00000000	      0.00000000
      2.42000000	      0.72442822	      0.08626840	     -1.05306662	      1.15106817	      1.09341449	     -0.24431654	     -2.38930399	      4.73393706	     -1.92079896	     -9.10792572	      5.68095840	    -10.76560646	      0.00000000	     23.11241176	     -1.57218144	     -4.74096155	    -38.36749354	      2.92306892	     -8.73700890	      0.00000000	    -15.93882909	      0.37415101	      1.27737815	      4.35861088	    -16.25794513	     32.25012328	     51.06633044	     44.37726204	      0.00000000	      0.00000000	     -5.50122389	     -8.07733703	     36.59712343	     30.25602712	     44.37726204	      0.00000000	      0.00000000
      2.43000000	      0.48881029	     -0.21988886	     -1.24637019	      1.16277980	      1.09155605	     -0.24345560	     -3.00348697	      5.10304488	     -1.80075500	     -8.79862078	      6.17463285	    -10.73727202	      0.00000000	     23.64620910	     -1.80522903	     -4.40246691	    -35.22146430	      2.47448583	     -8.17586176	      0.00000000	    -15.74098728	      0.56909158	      1.53124129	      4.65931333	    -16.29738621	     32.13385887	     51.27585167	     44.37840152	      0.00000000	      0.00000000	     -5.58428787	     -8.00582492	     36.61673303	     30.26861972	     44.37840152	      0.00000000	      0.00000000
      2.44000000	      0.40137752	     -0.35776194	     -1.48927432	      1.17475897	      1.08990360	     -0.24272804	     -3.97677258	      5.24747192	     -1.63151947	     -8.09763288	      6.58748384	    -10.48993327	      0.00000000	     23.72789931	     -1.84829278	     -3.92823234	    -31.67477394	      2.06758579	     -7.48694188	      0.00000000	    -15.67700434	      0.56718351	      1.71148454	      5.03016386	    -16.38298466	     31.92953670	     51.76350227	     44.38084799	      0.00000000	      0.00000000	     -5.73804556	     -7.87944283	     36.65231158	     30.28845522	     44.38084799	      0.00000000	      0.00000000
      2.45000000	      0.69504461	     -0.50407136	     -1.69522065	      1.18701289	      1.08846102	     -0.24207737	     -5.40217871	      5.43714068	     -1.15099332	     -7.40714339	      6.84782667	    -10.81788751	      0.00000000	     23.43187170	     -1.91050165	     -3.72864412	    -28.16855505	      1.37709559	     -7.28463105	      0.00000000	    -16.08316190	      0.59594967	      2.05557970	      3.65605822	    -16.69936306	     28.55419016	     56.41175269	     44.43326421	      0.00000000	      0.00000000	     -5.74773131	     -7.88367858	     36.60147003	     30.58747898	     44.43326421	      0.00000000	      0.00000000
      2.46000000	      0.74043941	     -0.69374043	     -1.87009480	      1.19923897	      1.08647815	     -0.24139538	     -6.41562259	      5.65439564	     -0.99623423	     -6.98417638	      7.38412766	    -10.71761121	      0.00000000	     23.39203910	     -2.10568977	     -3.57148272	    -24.78919719	      0.79026721	     -6.68898620	      0.00000000	    -16.15401743	      0.65664476	      2.14027033	      3.96053996	    -16.63563153	     28.28676654	     56.72578198	     44.43908204	      0.00000000	      0.00000000	     -5.88993121	     -7.84040891	     36.59605625	     30.59821424	     44.43908204	      0.00000000	      0.00000000
      2.47000000	      0.80220210	     -0.90637320	     -2.02346860	      1.21151448	      1.08434802	     -0.24078626	     -7.47228818	      5.90214569	     -0.80431468	     -6.52012124	      7.80534411	    -10.82364872	      0.00000000	     23.34881162	     -2.25476786	     -3.13053415	    -21.52762582	      0.13839998	     -6.69948149	      0.00000000	    -16.26201716	      0.75030745	      2.31825349	      3.79050757	    -16.72256144	     27.44364677	     58.16651539	     44.46361519	      0.00000000	      0.00000000	     -5.97989616	     -7.78397190	     36.52777338	     30.66146473	     44.46361519	      0.00000000	      0.00000000
